# xmcd
#
# Track frame offsets:
#	150
#	9869
#	22699
#	31158
#	44264
#	55795
#	67523
#	86812
#	97273
#	108328
#	121445
#	135016
#	147749
#
# Disc length: 2182 seconds
#
# Revision: 1
# Processed by: cddbd v1.5.2PL0 Copyright (c) Steve Scherf et al.
# Submitted via: audiograbber 1.80
#
DISCID=9b08840d
DTITLE=Blanket - Bluegrass Music
DYEAR=1900
DGENRE=
TTITLE0=Rekni hvezdam
TTITLE1=Prvni pujdu dal
TTITLE2=Proud pereji
TTITLE3=Zem modravejch plani
TTITLE4=Mou zpravu dejte lidem
TTITLE5=Sweet Georgia Brown
TTITLE6=Hadka s andelem
TTITLE7=Moaned
TTITLE8=Otevri dvere do koran
TTITLE9=Vyplouvam
TTITLE10=Jsem tulak
TTITLE11=Kentucky Waltz
TTITLE12=Bleeker Street Rag
EXTD=
EXTT0=
EXTT1=
EXTT2=
EXTT3=
EXTT4=
EXTT5=
EXTT6=
EXTT7=
EXTT8=
EXTT9=
EXTT10=
EXTT11=
EXTT12=
PLAYORDER=
